# xmcd
#
# Track frame offsets: 
#        150
#        12245
#        26030
#        37984
#        52125
#        65779
#        76130
#        87429
#        100224
#        115568
#        127758
#        142169
#        155137
#        170914
#        184732
#        194966
#        207201
#        219586
#
# Disc length: 3072 seconds
#
# Revision: 0
# Processed by: cddbd v1.4PL0 Copyright (c) Steve Scherf et al.
# Submitted via: ExactAudioCopy v0.90b4
#
DISCID=0d0bfe12
DTITLE=Dolly Parton - The Bluegrass Collection
DYEAR=2003
DGENRE=Bluegrass
TTITLE0=The Bargain Store
TTITLE1=My Tennessee Mountain Home
TTITLE2=To Daddy
TTITLE3=Mule Skinner Blues
TTITLE4=Joshua
TTITLE5=River Of Happiness
TTITLE6=Old Black Kettle
TTITLE7=Daddy's Working Boots
TTITLE8=In The Good Old Days (When Times Were Bad)
TTITLE9=Back Home
TTITLE10=The Better Part Of Life
TTITLE11=J. J. Sneed
TTITLE12=Daddy's Moonshine Still
TTITLE13=Coat Of Many Colors
TTITLE14=My Blue Tears
TTITLE15=Early Morning Breeze
TTITLE16=In The Ghetto
TTITLE17=Shattered Image
EXTD=
EXTT0=
EXTT1=
EXTT2=
EXTT3=
EXTT4=
EXTT5=
EXTT6=
EXTT7=
EXTT8=
EXTT9=
EXTT10=
EXTT11=
EXTT12=
EXTT13=
EXTT14=
EXTT15=
EXTT16=
EXTT17=
PLAYORDER=
